:SAMPLES-PER-SECOND 30
:FULLY-SPECIFIED
:DEGREES
178
root  2.39595 39.2758 -0.290425 22.6682 -52.7961 -19.7626
RightUpLeg  -14.7742 -9.04605 15.997
RightLeg  17.459 -1.72939 2.00716
RightFoot  -5.5677 -0.668966 12.4069
RightToes  -1.28057e-009 0 -3.6325e-017
Spine  21.6138 -2.85201 -22.0966
Spine1  -10.8976 -10.1232 38.2749
HEad  -14.9868 -4.58692 6.00749
LeftShoulder1  0.108579 -5.42675 8.27721
LeftArm  49.55 -41.9664 -108.227
LeftForeArm  68.3451 -64.6432 -16.6069
LeftHand  0.979151 7.3579 51.8221
RightShoulder  0.0710749 -3.07892 8.93084
RightArm  -42.4946 -0.626623 42.3374
RightForeArm  54.1799 72.5269 30.1673
RightHand  -2.97127 0.924614 -51.366
LeftUpLeg  -25.1948 -30.5041 14.8155
LeftLeg  35.3488 23.2835 17.0739
LeftFoot  -9.43824 0.101669 -2.81905
LeftToes  -7.27922e-012 9.28972e-011 -9.04533e-012
179
root  2.57324 39.0559 -0.268298 21.3967 -53.1661 -18.2109
RightUpLeg  -15.4266 -9.0067 15.6333
RightLeg  18.6242 -2.19528 0.636261
RightFoot  -8.67756 -0.342346 11.8604
RightToes  -1.28057e-009 0 -3.6325e-017
Spine  21.0004 -2.37875 -20.8076
Spine1  -8.78572 -9.69604 34.9426
HEad  -18.2285 -6.25173 7.62234
LeftShoulder1  0.473218 -5.76038 3.8008
LeftArm  56.362 -34.7612 -107.433
LeftForeArm  62.5081 -51.6908 -9.36176
LeftHand  0.841692 7.0727 51.8518
RightShoulder  0.35209 -1.72232 12.9398
RightArm  -43.3708 -9.10057 45.4515
RightForeArm  43.1313 66.2659 21.6039
RightHand  -2.97164 0.813688 -52.1673
LeftUpLeg  -25.5854 -28.8366 13.6272
LeftLeg  35.5584 21.3024 15.9083
LeftFoot  -10.8461 0.0822996 -4.26924
LeftToes  -7.27922e-012 9.28972e-011 -9.04533e-012
180
root  2.95335 38.813 0.0160628 16.8035 -54.963 -13.9916
RightUpLeg  -16.2601 -7.55733 13.038
RightLeg  22.5917 -3.75136 -2.13164
RightFoot  -12.067 -0.0130485 10.4124
RightToes  -1.28057e-009 0 -3.6325e-017
Spine  20.9853 -2.15296 -17.8977
Spine1  -6.19941 -8.979 28.8456
HEad  -22.3494 -7.68824 6.87249
LeftShoulder1  1.0713 -5.80837 -3.49426
LeftArm  53.1641 -27.3623 -98.5421
LeftForeArm  57.2279 -41.147 -6.17581
LeftHand  0.876584 7.14385 51.9065
RightShoulder  0.645104 -0.565538 15.3596
RightArm  -38.6911 -11.6646 50.363
RightForeArm  33.6006 55.6882 13.6644
RightHand  -2.75415 0.43682 -51.5773
LeftUpLeg  -23.952 -24.4615 8.91606
LeftLeg  34.815 17.6499 13.1082
LeftFoot  -12.3939 0.0350506 -4.54418
LeftToes  -7.27922e-012 9.28972e-011 -9.04533e-012
181
root  3.3761 38.6174 0.595486 9.21288 -56.3505 -7.21523
RightUpLeg  -16.5925 -1.15987 7.49817
RightLeg  28.0929 -9.11267 -5.47264
RightFoot  -14.5503 0.194411 10.3953
RightToes  -1.28057e-009 0 -3.6325e-017
Spine  21.2499 -3.00292 -12.4042
Spine1  -3.94454 -8.09724 19.3981
HEad  -25.7559 -10.2457 4.60689
LeftShoulder1  1.72894 -5.85442 -11.2693
LeftArm  43.0825 -21.0266 -84.6099
LeftForeArm  49.634 -35.2955 -5.07383
LeftHand  0.914327 7.27727 50.6124
RightShoulder  0.833022 0.241148 15.5878
RightArm  -26.9086 -10.3404 56.0811
RightForeArm  30.0255 45.3477 9.11755
RightHand  -2.73277 0.585324 -50.1103
LeftUpLeg  -21.0206 -17.8356 2.09802
LeftLeg  33.195 13.1265 9.44026
LeftFoot  -13.3548 0.032685 -2.70998
LeftToes  -7.27922e-012 9.28972e-011 -9.04533e-012
182
root  3.66394 38.467 1.37199 -0.495819 -57.8717 1.70872
RightUpLeg  -16.4641 6.95956 1.33945
RightLeg  33.9649 -13.6291 -9.93112
RightFoot  -15.7674 0.301164 10.5605
RightToes  -1.28057e-009 0 -3.6325e-017
Spine  19.8222 -4.59261 -4.02013
Spine1  -1.51438 -6.25482 5.04384
HEad  -26.7939 -14.4233 2.41665
LeftShoulder1  2.12171 -6.21804 -15.0292
LeftArm  30.222 -16.2123 -71.3521
LeftForeArm  42.5796 -33.7891 -5.08544
LeftHand  0.695586 6.86865 49.1006
RightShoulder  0.960475 0.939023 14.8703
RightArm  -11.0321 -7.75221 62.2997
RightForeArm  32.8387 41.4071 7.69544
RightHand  -2.61561 0.527279 -48.605
LeftUpLeg  -17.0675 -8.2289 -5.20293
LeftLeg  30.4097 7.50825 5.16941
LeftFoot  -14.1589 0.0279728 -2.2336
LeftToes  -7.27922e-012 9.28972e-011 -9.04533e-012
183
root  3.7433 38.3744 2.13938 -12.091 -60.6273 13.2622
RightUpLeg  -16.6086 17.1063 -4.65795
RightLeg  39.1486 -17.4264 -14.868
RightFoot  -15.7915 0.251549 9.19443
RightToes  -1.28057e-009 0 -3.6325e-017
Spine  17.0154 -5.24286 4.00176
Spine1  0.371061 -2.96972 -11.0956
HEad  -24.8687 -18.2537 0.491657
LeftShoulder1  1.90317 -6.01193 -12.9344
LeftArm  15.8428 -12.9035 -63.4471
LeftForeArm  38.8618 -34.9904 -5.57994
LeftHand  0.672719 6.78599 49.8954
RightShoulder  0.971176 1.2929 13.3372
RightArm  3.08702 -3.51521 69.5039
RightForeArm  41.3248 44.141 8.06231
RightHand  -2.25169 -0.136073 -47.3338
LeftUpLeg  -12.9862 4.2941 -11.484
LeftLeg  26.3497 0.667404 0.576224
LeftFoot  -14.6633 -0.0435092 -4.54779
LeftToes  -7.27922e-012 9.28972e-011 -9.04533e-012
